<svg width="299" height="201" viewBox="0 0 299 201" fill="none" xmlns="http://www.w3.org/2000/svg">
<path d="M126.286 100.609C136.204 94.8672 145.167 88.4212 163.113 75.5225C166.572 73.027 170.372 70.2221 169.992 66.6864C169.544 62.5514 163.552 59.7794 160.795 58.3967C119.797 37.8141 74.3079 25.4291 23.0998 22.8414C13.4252 22.3542 1.81177 23.5459 1.14926 12.5699C0.467263 1.22513 8.62198 -0.710661 22.7393 0.211142C81.4786 4.03663 134.781 17.146 181.927 41.4553C188.942 45.0766 196.083 52.8264 206.391 45.3334C216.319 38.0907 214.877 30.0315 205.417 22.8941C196.122 15.9345 186.233 9.29749 176.461 2.40372H294.222V81.8434C286.028 76.576 278.186 70.7028 269.037 65.9752C262.217 62.4461 253.994 59.0025 245.82 58.2058C240.267 57.6658 231.868 60.8395 228.332 64.1316C226.227 66.1069 229.608 72.2369 233.018 75.1801C269.982 107.088 291.225 143.168 296.746 183.42C297.72 190.274 303.147 198.833 285.142 200.341C268.111 201.77 264.38 195.877 263.591 185.856C260.892 151.617 242.069 121.33 212.802 93.6755C210.376 91.3841 204.442 85.7743 198.509 86.4327C193.638 86.9463 187.948 91.7002 187.948 91.7002L152.172 116.464C152.172 116.464 162.461 131.094 169.709 145.033C176.958 158.972 182.706 173.346 188.221 187.627C191.582 196.331 186.36 200.677 172.106 200.447C165.539 200.341 157.872 200.394 157.882 200.394L94.3001 200.078C94.3001 200.078 87.2463 199.9 82.3554 198.801C78.383 197.893 74.6622 196.545 71.3461 194.81C76.9579 188.068 82.7841 184.388 88.016 182.169L96.4825 179.436L133.115 178.824C133.398 178.784 145.021 178.962 148.392 175.479C150.604 173.201 150.175 169.731 146.999 164.944C146.736 164.549 146.658 164.095 146.434 163.686C141.884 155.298 135.561 141.3 125 139.68C119.095 138.778 113.376 141.912 107.463 145.435C84.1578 159.262 46.3266 185.645 35.3659 193.085C35.3659 193.085 21.4727 202.198 12.4704 200.855C9.77157 200.415 7.3186 199.457 5.40685 198.096C3.13156 196.509 1.49483 194.555 0.652367 192.42C-1.52028 186.264 9.54753 178.916 12.8211 176.789C37.1781 160.987 60.5608 144.592 84.5573 128.572C87.4801 126.597 93.7642 122.311 92.4295 117.972C91.9618 116.437 90.4809 115.042 82.3164 111.308C75.3991 108.135 71.0538 106.14 62.1781 103.44C47.8464 99.0877 40.6757 96.9083 36.8468 99.0153C32.4723 101.445 33.1933 109.214 33.1933 109.214C33.1933 109.214 33.0861 119.348 32.901 138.396C30.5125 141.127 27.6969 143.677 24.5027 146.001C20.5138 148.969 15.6213 151.319 10.1613 152.888C7.67233 151.008 5.72305 148.831 4.4131 146.468C3.03882 143.65 2.12726 140.737 1.69485 137.784C1.69485 137.784 1.08105 86.5051 1.08105 86.5051C1.08105 86.5051 0.710837 78.9134 5.44583 75.9702C6.89751 75.0682 11.2428 72.8295 22.2814 73.9949C47.7003 76.5892 117.897 98.0343 126.286 100.609Z" fill="black"/>
</svg>
